# xmcd
#
# Track frame offsets: 
#        150
#        12640
#        31482
#        46165
#        57300
#        68960
#        89720
#        101205
#        111507
#        123552
#        135397
#        149025
#
# Disc length: 2159 seconds
#
# Revision: 4
# Processed by: cddbd v1.5.1PL0 Copyright (c) Steve Scherf et al.
# Submitted via: ExactAudioCopy v0.95a5
#
DISCID=bd086d0c
DTITLE=Various Artist - The Blues of Robert Johnson
DYEAR=1997
DGENRE=Blues
TTITLE0=Johnny Shines - Sweet Home Chicago
TTITLE1=John Hammond - Dust My Broom
TTITLE2=Rory Block - Come On In My Kitchen
TTITLE3=Paul Rishell - 32-20 Blues
TTITLE4=Kristina Olsen - Walking Blues
TTITLE5=John Hammond - Steady Rollin' Man
TTITLE6=Rory Block - Crossroad Blues
TTITLE7=John Hammond - Hot Tamales
TTITLE8=Johnny Shines - Kind Hearted Woman
TTITLE9=Rory Block - Hellhound On My Trail
TTITLE10=Johnny Shines - Terraplane Blues
TTITLE11=Bob Brozman - Stones In My Passway
EXTD=LABEL =Rounder Records Corp.\nID =EDCD7029\nUPC =712136-7029-2
EXTD=4\nCOPYRIGHT =1997
EXTT0=
EXTT1=
EXTT2=
EXTT3=
EXTT4=
EXTT5=
EXTT6=
EXTT7=
EXTT8=
EXTT9=
EXTT10=
EXTT11=
PLAYORDER=
